<?xml version="1.0" standalone="no"?>
<!DOCTYPE svg PUBLIC "-//W3C//DTD SVG 20010904//EN"
 "http://www.w3.org/TR/2001/REC-SVG-20010904/DTD/svg10.dtd">
<svg version="1.0" xmlns="http://www.w3.org/2000/svg"
 width="225.000000pt" height="225.000000pt" viewBox="0 0 225.000000 225.000000"
 preserveAspectRatio="xMidYMid meet">
<metadata>
Created by potrace 1.15, written by Peter Selinger 2001-2017
</metadata>
<g transform="translate(0.000000,225.000000) scale(0.100000,-0.100000)"
fill="#000000" stroke="none">
<path d="M607 1663 c-47 -82 -130 -227 -185 -323 -56 -96 -99 -177 -96 -181 2
-4 22 -10 43 -14 58 -10 95 20 197 159 121 164 156 203 235 262 100 76 174 99
319 97 95 -1 132 -7 215 -31 111 -33 196 -70 203 -89 2 -7 -8 -18 -22 -24 -21
-10 -41 -8 -113 12 -128 35 -269 34 -338 -2 -42 -21 -95 -76 -95 -98 0 -3 42
-6 93 -6 115 0 158 -18 375 -158 85 -55 182 -111 215 -125 78 -32 180 -36 248
-9 l47 18 -82 137 c-45 75 -123 202 -173 282 -49 80 -102 166 -117 193 l-28
47 -428 0 -428 0 -85 -147z"/>
<path d="M1116 1285 l-18 -57 -37 36 c-20 20 -40 36 -43 36 -4 0 -1 -21 7 -47
8 -27 15 -49 15 -51 0 -2 -26 0 -57 3 l-58 7 39 -40 39 -41 -27 -11 c-15 -5
-35 -10 -44 -10 -9 0 -23 -4 -31 -9 -9 -6 3 -12 38 -21 28 -6 53 -16 56 -20 3
-5 -13 -26 -35 -46 -22 -21 -39 -38 -38 -40 2 -1 27 4 57 12 30 7 56 12 59 10
2 -3 -3 -27 -11 -55 -8 -28 -12 -51 -8 -51 4 0 22 16 41 35 18 19 37 32 41 30
4 -3 13 -29 20 -57 l12 -53 14 45 c8 25 17 51 19 59 3 9 16 2 44 -23 22 -20
42 -36 44 -36 2 0 -2 23 -10 52 -7 29 -12 53 -10 55 1 2 26 -3 54 -11 29 -7
52 -11 52 -7 0 3 -17 22 -37 43 -40 41 -42 39 39 63 l43 13 -45 11 c-78 21
-77 18 -37 59 20 21 37 41 37 44 0 3 -25 0 -55 -7 -30 -7 -55 -12 -55 -11 0 0
7 25 14 54 8 28 11 52 8 52 -3 0 -23 -17 -44 -37 -27 -26 -39 -32 -42 -22 -2
8 -11 34 -18 58 l-14 43 -18 -57z"/>
<path d="M390 1067 c-19 -7 -42 -17 -51 -23 -18 -10 -23 0 149 -279 27 -44 90
-149 141 -232 l93 -153 361 -2 c199 -1 382 -3 406 -4 89 -2 76 -17 267 318 97
171 177 317 178 325 2 24 -49 37 -84 23 -42 -18 -75 -52 -172 -186 -139 -191
-213 -257 -334 -299 -130 -45 -303 -36 -474 23 -113 39 -140 53 -140 69 0 7
11 18 24 25 20 8 43 6 113 -12 182 -47 319 -34 387 36 19 19 36 43 38 52 5 16
-2 17 -59 14 -35 -3 -85 1 -111 8 -54 15 -161 69 -259 133 -190 123 -230 145
-308 166 -52 14 -121 13 -165 -2z"/>
</g>
</svg>
